<svg width="100%" viewBox="0 0 403 229" fill="none" xmlns="http://www.w3.org/2000/svg">
    <g clip-path="url(#clip0_6_51)">
        <path d="M55.3005 75.7747V71.0731C53.3827 70.9149 51.4976 70.4814 49.7033 69.7857C47.7738 69.1309 46.0013 68.0826 44.4979 66.7072L43.6583 65.9236L47.5764 59.4868L48.8637 60.4943C49.971 61.372 51.2205 62.0535 52.5579 62.5093C53.5171 62.885 54.5106 63.1662 55.5244 63.3489V54.4493C53.1785 53.8698 50.9063 53.0248 48.7518 51.9306C47.306 50.9828 46.1145 49.6952 45.2815 48.1804C44.3729 46.4584 43.9292 44.5291 43.9942 42.5832C43.928 41.0513 44.2287 39.5257 44.8713 38.1335C45.5138 36.7413 46.4797 35.5227 47.6883 34.5792C49.8985 32.9155 52.5414 31.9244 55.3005 31.7246V28.0304H60.394V31.7246C62.3132 31.7934 64.2064 32.191 65.9912 32.9C67.7032 33.5994 69.2622 34.6261 70.581 35.9225L71.5325 36.818L66.8868 42.863L65.7114 41.7996C64.3428 40.474 62.5689 39.6462 60.6739 39.4487V47.5647H61.0097C64.0621 48.4075 66.8532 50.0052 69.1257 52.2104C70.8433 54.3185 71.7028 56.9968 71.5325 59.7107C71.5475 61.3815 71.2238 63.038 70.581 64.5803C69.9373 65.9902 68.957 67.2203 67.7264 68.1625C66.5672 69.0375 65.2845 69.7354 63.9203 70.2335C62.8623 70.5735 61.7757 70.817 60.6739 70.9611V75.7747H55.3005ZM60.394 63.125C61.0614 62.8892 61.6293 62.4345 62.0053 61.8349C62.3813 61.2353 62.5433 60.5261 62.465 59.8226C62.5235 59.358 62.5235 58.8879 62.465 58.4233C62.3918 58.1372 62.2582 57.87 62.0732 57.6397C61.7695 57.2856 61.4103 56.9832 61.0097 56.7442H60.5619L60.394 63.125ZM55.3005 39.6167C54.7436 39.7766 54.2149 40.0221 53.7333 40.3443C53.4387 40.5758 53.2038 40.8744 53.048 41.2152C52.8922 41.556 52.8201 41.9291 52.8378 42.3033C52.7804 43.1156 52.9972 43.9237 53.4535 44.5982C54.0047 45.0685 54.6285 45.4466 55.3005 45.7176V39.6167Z"
              fill="#9E007E"/>
        <path d="M133.102 163.091V157.494C130.691 157.291 128.319 156.764 126.049 155.927C123.694 155.088 121.526 153.795 119.669 152.121L118.717 151.169L123.419 143.333L124.986 144.621C126.338 145.66 127.851 146.473 129.464 147.027C130.633 147.504 131.854 147.842 133.102 148.035V137.176C130.339 136.399 127.686 135.27 125.21 133.818C123.409 132.701 121.924 131.14 120.9 129.284C119.838 127.249 119.317 124.974 119.389 122.679C119.309 120.825 119.674 118.979 120.453 117.295C121.232 115.61 122.402 114.137 123.867 112.996C126.541 110.956 129.748 109.731 133.102 109.47V105.048H139.315V109.47C141.524 109.614 143.696 110.105 145.752 110.925C147.829 111.801 149.727 113.054 151.349 114.619L152.412 115.739L146.815 123.071L145.528 121.728C143.82 120.162 141.669 119.165 139.371 118.873V128.724H139.763C143.483 129.727 146.891 131.652 149.67 134.322C151.747 136.892 152.785 140.147 152.58 143.445C152.575 145.372 152.175 147.276 151.405 149.042C150.639 150.754 149.467 152.252 147.991 153.408C146.55 154.466 144.967 155.314 143.289 155.927C142.014 156.349 140.702 156.649 139.371 156.823V162.42L133.102 163.091ZM139.315 147.531C140.136 147.254 140.835 146.701 141.294 145.966C141.753 145.231 141.944 144.36 141.834 143.501C141.892 142.943 141.892 142.38 141.834 141.822C141.699 141.477 141.51 141.156 141.274 140.87C140.938 140.402 140.497 140.019 139.987 139.751H139.483L139.315 147.531ZM133.102 119.097C132.432 119.296 131.806 119.619 131.255 120.049C130.888 120.317 130.594 120.673 130.398 121.083C130.203 121.493 130.113 121.946 130.135 122.4C130.073 123.377 130.35 124.345 130.919 125.142C131.551 125.729 132.293 126.186 133.102 126.486V119.097Z"
              fill="#9E007E"/>
        <path d="M44.7778 88.3685H28.6018C27.1173 88.3685 25.6936 87.7788 24.644 86.7291C23.5943 85.6794 23.0046 84.2557 23.0046 82.7712V24.6721C23.0046 23.1876 23.5943 21.7639 24.644 20.7142C25.6936 19.6646 27.1173 19.0748 28.6018 19.0748H87.8204C89.3049 19.0748 90.7285 19.6646 91.7782 20.7142C92.8279 21.7639 93.4176 23.1876 93.4176 24.6721V63.4608C93.4176 64.9453 94.0073 66.369 95.057 67.4187C96.1067 68.4683 97.5304 69.058 99.0148 69.058C100.499 69.058 101.923 68.4683 102.973 67.4187C104.022 66.369 104.612 64.9453 104.612 63.4608V24.6721C104.612 20.2186 102.843 15.9476 99.6939 12.7986C96.5449 9.64953 92.2738 7.8804 87.8204 7.8804H28.6018C24.1484 7.8804 19.8773 9.64953 16.7283 12.7986C13.5792 15.9476 11.8101 20.2186 11.8101 24.6721V82.6033C11.8101 87.0567 13.5792 91.3278 16.7283 94.4768C19.8773 97.6259 24.1484 99.395 28.6018 99.395H44.7778C46.2622 99.395 47.6859 98.8053 48.7356 97.7556C49.7853 96.7059 50.375 95.2822 50.375 93.7978C50.375 92.3133 49.7853 90.8896 48.7356 89.8399C47.6859 88.7903 46.2622 88.2005 44.7778 88.2005V88.3685Z"
              fill="#9E007E"/>
        <path d="M387.104 77.286C382.85 76.2225 283.163 50.979 263.237 49.8036C241.296 48.5163 233.852 54.3933 198.086 82.4354C198.086 82.4354 197.75 82.8832 197.526 83.0511C195.864 82.496 194.128 82.1941 192.377 82.1556H82.1112C79.9061 82.1556 77.7226 82.5899 75.6854 83.4337C73.6481 84.2776 71.797 85.5145 70.2377 87.0737C68.6785 88.633 67.4416 90.4841 66.5978 92.5213C65.7539 94.5586 65.3196 96.7421 65.3196 98.9472V170.592C65.3196 175.045 67.0887 179.316 70.2377 182.465C73.3868 185.614 77.6578 187.383 82.1112 187.383H130.247C131.732 187.383 133.156 186.794 134.205 185.744C135.255 184.694 135.845 183.271 135.845 181.786C135.845 180.302 135.255 178.878 134.205 177.828C133.156 176.779 131.732 176.189 130.247 176.189H82.1112C80.6268 176.189 79.2031 175.599 78.1534 174.55C77.1037 173.5 76.514 172.076 76.514 170.592V99.0032C76.514 97.5187 77.1037 96.095 78.1534 95.0454C79.2031 93.9957 80.6268 93.406 82.1112 93.406H192.377C193.861 93.406 195.285 93.9957 196.334 95.0454C197.384 96.095 197.974 97.5187 197.974 99.0032V110.198L158.793 122.008C157.694 122.339 156.724 122.999 156.013 123.901C155.302 124.802 154.885 125.899 154.819 127.045C154.371 135.945 159.801 154.08 183.981 159.117C188.732 160.176 193.562 160.85 198.422 161.132V170.648C198.422 172.132 197.832 173.556 196.782 174.605C195.732 175.655 194.309 176.245 192.824 176.245H177.992C176.507 176.245 175.084 176.835 174.034 177.884C172.984 178.934 172.394 180.358 172.394 181.842C172.394 183.327 172.984 184.75 174.034 185.8C175.084 186.85 176.507 187.439 177.992 187.439H192.6C195.002 187.438 197.372 186.903 199.541 185.872C201.96 191.015 206.271 195.025 211.575 197.067C224.616 202.303 238.105 206.349 251.875 209.157C255.242 209.732 258.647 210.05 262.062 210.108C264.168 212.991 266.934 215.329 270.127 216.926C273.321 218.522 276.85 219.332 280.421 219.288H282.324C295.365 218.336 302.922 211.172 310.31 203.223C313.751 199.114 316.683 194.603 319.042 189.79C324.359 192.107 330.043 193.471 335.833 193.82H337.457C351.506 193.82 374.118 182.626 386.656 176.021C387.304 175.669 387.877 175.193 388.34 174.62C388.804 174.047 389.149 173.387 389.357 172.68C389.566 171.973 389.632 171.231 389.552 170.498C389.473 169.765 389.25 169.055 388.895 168.409C388.544 167.761 388.067 167.188 387.494 166.725C386.921 166.261 386.262 165.915 385.554 165.707C384.847 165.499 384.105 165.433 383.372 165.512C382.639 165.592 381.929 165.815 381.283 166.17C361.581 176.805 344.509 182.962 336.505 182.626C332.177 182.342 327.924 181.359 323.911 179.715L327.326 171.991L328.445 169.416C330.124 169.416 331.747 169.416 333.483 169.416H336.673C338.157 169.416 339.581 168.827 340.631 167.777C341.68 166.727 342.27 165.304 342.27 163.819C342.27 162.335 341.68 160.911 340.631 159.861C339.581 158.812 338.157 158.222 336.673 158.222C315.348 158.782 302.474 152.625 287.697 145.852C283.835 144.061 279.973 142.27 275.887 140.255L274.544 139.695C255.065 131.467 253.666 131.411 236.483 138.911L234.803 139.639C232.677 140.535 230.606 141.486 228.702 142.382C214.933 148.595 207.321 152.009 186.443 147.643C171.723 144.621 167.693 136.001 166.573 130.851L205.026 119.321C205.51 119.234 205.981 119.083 206.426 118.873L278.798 97.2121C280.223 96.7816 281.418 95.8026 282.122 94.4905C282.825 93.1784 282.978 91.6407 282.548 90.2156C282.117 88.7905 281.138 87.5948 279.826 86.8915C278.514 86.1882 276.976 86.0349 275.551 86.4654L209.168 106.783V99.0032C209.155 95.8294 208.243 92.7242 206.538 90.0476C241.016 63.0131 245.718 59.9906 262.51 60.9981C277.622 61.8376 348.763 79.1331 384.249 88.1446C384.962 88.3247 385.704 88.3626 386.431 88.2561C387.159 88.1496 387.859 87.9009 388.49 87.5241C389.122 87.1472 389.673 86.6497 390.112 86.0599C390.551 85.4701 390.87 84.7996 391.05 84.0866C391.23 83.3736 391.268 82.6321 391.161 81.9045C391.055 81.1769 390.806 80.4773 390.429 79.8458C390.053 79.2144 389.555 78.6633 388.965 78.224C388.375 77.7848 387.705 77.4661 386.992 77.286H387.104ZM301.69 195.611C295.421 202.496 290.496 207.421 281.372 208.037C279.281 208.208 277.181 207.842 275.271 206.974C280.042 204.191 284.029 200.243 286.858 195.499C293.026 185.656 298.487 175.387 303.202 164.771C307.607 166.243 312.116 167.385 316.691 168.185C313.109 178.034 308.051 187.282 301.69 195.611ZM292.679 160.797C288.256 170.664 283.17 180.22 277.454 189.398C271.857 198.466 266.652 200.257 253.442 198.074C240.561 195.463 227.937 191.717 215.717 186.88C214.082 186.325 212.622 185.35 211.482 184.054C210.343 182.757 209.564 181.184 209.224 179.491C209.173 178.771 208.983 178.068 208.664 177.42C220.762 179.885 233.044 181.346 245.382 181.786C249.165 181.927 252.945 181.455 256.577 180.387C266.092 176.973 273.368 164.043 277.174 156.151L280.141 155.087C284.451 157.046 288.537 159.005 292.679 160.797ZM232.9 153.016C234.803 152.121 236.762 151.225 238.889 150.33L240.569 149.602C253.442 144.005 254.002 144.005 267.939 149.602C264.245 157.774 258.032 167.961 252.938 169.808C246.782 171.991 224.505 169.08 209.392 166.114V160.517C217.575 159.274 225.51 156.742 232.9 153.016Z"
              fill="#9E007E"/>
        <path d="M159.745 181.842C159.745 182.949 159.416 184.031 158.801 184.952C158.186 185.872 157.312 186.59 156.289 187.013C155.267 187.437 154.141 187.548 153.056 187.332C151.97 187.116 150.972 186.583 150.19 185.8C149.407 185.017 148.874 184.02 148.658 182.934C148.442 181.848 148.553 180.723 148.976 179.7C149.4 178.677 150.117 177.803 151.038 177.188C151.958 176.573 153.04 176.245 154.148 176.245C155.632 176.245 157.056 176.835 158.105 177.884C159.155 178.934 159.745 180.358 159.745 181.842Z"
              fill="#9E007E"/>
    </g>
    <defs>
        <clipPath id="clip0_6_51">
            <rect width="403" height="229" fill="white"/>
        </clipPath>
    </defs>
</svg>