<svg width="20" height="20" viewBox="0 0 20 20" fill="none" xmlns="http://www.w3.org/2000/svg">
<path d="M11.6667 12.5L8.33337 15.8333L11.6667 19.1667" stroke="#9E007E" stroke-width="1.875"/>
<path d="M15.0519 7.08335C15.5638 7.97013 15.8334 8.97606 15.8334 10C15.8334 11.024 15.5638 12.0299 15.0519 12.9167C14.5399 13.8035 13.8035 14.5399 12.9167 15.0518C12.0299 15.5638 11.024 15.8334 10 15.8334" stroke="#9E007E" stroke-width="1.875" stroke-linecap="round"/>
<path d="M8.33329 7.5L11.6666 4.16667L8.33329 0.833333" stroke="#9E007E" stroke-width="1.875"/>
<path d="M4.94814 12.9166C4.43616 12.0299 4.16663 11.0239 4.16663 9.99998C4.16663 8.97602 4.43616 7.97009 4.94814 7.08331C5.46013 6.19653 6.19651 5.46015 7.08329 4.94817C7.97007 4.43618 8.976 4.16665 9.99996 4.16665" stroke="#9E007E" stroke-width="1.875" stroke-linecap="round"/>
</svg>
