<svg width="58" height="18" viewBox="0 0 58 18" fill="none" xmlns="http://www.w3.org/2000/svg">
<path d="M8.7607 6.09383L7.62744 11.392H6.25668L7.39006 6.09383H8.7607ZM14.5273 9.51495L15.2488 7.52536L15.6639 9.51495H14.5273ZM16.0572 11.392H17.3246L16.2173 6.09383H15.0482C14.7847 6.09383 14.5626 6.2466 14.4643 6.48219L12.4076 11.392H13.8472L14.1329 10.6008H15.8912L16.0572 11.392ZM12.479 9.66235C12.485 8.26407 10.546 8.18661 10.559 7.56183C10.5632 7.372 10.7443 7.16978 11.1402 7.11806C11.3365 7.0928 11.8781 7.0723 12.492 7.3552L12.7321 6.23123C12.4024 6.11195 11.978 5.99707 11.45 5.99707C10.095 5.99707 9.14179 6.71683 9.13417 7.74832C9.12547 8.5111 9.81508 8.9364 10.3336 9.19046C10.8681 9.45012 11.0472 9.6166 11.0446 9.84861C11.0409 10.2041 10.6184 10.3615 10.2249 10.3675C9.5354 10.3782 9.13572 10.1811 8.81719 10.0326L8.56837 11.1941C8.88916 11.3409 9.48022 11.4687 10.0923 11.4752C11.5328 11.4752 12.4747 10.7639 12.479 9.66235ZM6.8021 6.09383L4.58122 11.392H3.13253L2.03954 7.1637C1.97329 6.90368 1.91549 6.80811 1.71398 6.69824C1.38437 6.51925 0.840265 6.35183 0.361816 6.24767L0.39423 6.09383H2.72653C3.02361 6.09383 3.2909 6.29153 3.35894 6.63377L3.9363 9.69989L5.36211 6.09383H6.8021Z" fill="#222222"/>
<path fill-rule="evenodd" clip-rule="evenodd" d="M31.5349 10.8961C30.935 11.3677 30.2145 11.6609 29.4558 11.7423C28.6971 11.8238 27.9308 11.6901 27.2444 11.3566C26.5581 11.0231 25.9795 10.5032 25.5746 9.8564C25.1698 9.20957 24.9551 8.46189 24.9551 7.69882C24.9551 6.93575 25.1698 6.18807 25.5746 5.54125C25.9795 4.89442 26.5581 4.37455 27.2444 4.04105C27.9308 3.70755 28.6971 3.57387 29.4558 3.65531C30.2145 3.73674 30.935 4.02998 31.5349 4.50151C32.1348 4.02997 32.8553 3.73674 33.6139 3.65531C34.3726 3.57387 35.1389 3.70755 35.8253 4.04105C36.5116 4.37456 37.0902 4.89443 37.495 5.54125C37.8999 6.18808 38.1145 6.93575 38.1145 7.69881C38.1145 8.46186 37.8999 9.20954 37.495 9.85636C37.0902 10.5032 36.5116 11.0231 35.8253 11.3566C35.1389 11.6901 34.3726 11.8237 33.6139 11.7423C32.8553 11.6609 32.1348 11.3676 31.5349 10.8961ZM29.9817 7.69882C29.9811 7.08298 30.1207 6.47509 30.3898 5.92115C30.6589 5.36724 31.0505 4.8818 31.5349 4.50159C32.0189 4.88218 32.4102 5.3677 32.6792 5.92152C32.9483 6.47536 33.0881 7.08307 33.0881 7.69881C33.0881 8.31455 32.9483 8.92225 32.6792 9.4761C32.4102 10.0299 32.0189 10.5154 31.5349 10.896C31.0505 10.5158 30.6589 10.0304 30.3898 9.47649C30.1207 8.92256 29.9811 8.31466 29.9817 7.69882ZM32.2002 10.8529C32.645 11.1135 33.1416 11.278 33.6578 11.3334C34.3398 11.4066 35.0286 11.2865 35.6455 10.9867C36.2624 10.6869 36.7826 10.2196 37.1464 9.63819C37.5103 9.05678 37.7033 8.38472 37.7033 7.69882C37.7033 7.01293 37.5103 6.34083 37.1464 5.75942C36.7826 5.17801 36.2624 4.71071 35.6455 4.41093C35.0286 4.11115 34.3398 3.99099 33.6578 4.06419C33.1416 4.1196 32.645 4.28412 32.2002 4.54468C32.5462 4.89345 32.8334 5.29769 33.0491 5.74182C33.3454 6.35167 33.4993 7.02081 33.4993 7.69881C33.4993 8.3768 33.3454 9.04595 33.0491 9.65579C32.8334 10.0999 32.5462 10.5042 32.2002 10.8529Z" fill="#222222"/>
<path d="M37.7266 10.0877V10.2187H37.6978V10.0877H37.645V10.0611H37.7794V10.0877H37.7266Z" fill="#222222"/>
<path d="M37.9877 10.0608V10.2187H37.9586V10.0993L37.9141 10.2022H37.884L37.8395 10.0996V10.2187H37.8104V10.0608H37.8516L37.899 10.1694L37.9464 10.0608H37.9877Z" fill="#222222"/>
<path d="M27.349 13.1325V13.8102H27.1118V13.2093C27.1118 13.0264 27.035 12.9247 26.8746 12.9247C26.8375 12.923 26.8004 12.9294 26.766 12.9436C26.7316 12.9577 26.7008 12.9792 26.6756 13.0065C26.6504 13.0339 26.6315 13.0664 26.6202 13.1018C26.6089 13.1373 26.6056 13.1747 26.6103 13.2116V13.8102H26.3731V13.2093C26.3731 13.0264 26.294 12.9247 26.1382 12.9247C26.1009 12.9226 26.0637 12.9288 26.0291 12.9428C25.9946 12.9568 25.9635 12.9783 25.9383 13.0057C25.913 13.0332 25.8941 13.0658 25.883 13.1014C25.8719 13.137 25.8687 13.1746 25.8739 13.2116V13.8102H25.6367V12.7304H25.8716V12.8637C25.9058 12.8118 25.953 12.7696 26.0084 12.7415C26.0639 12.7134 26.1258 12.7002 26.1879 12.7033C26.2591 12.7003 26.3299 12.7165 26.3927 12.7503C26.4555 12.7841 26.5081 12.8342 26.5448 12.8953C26.5851 12.8323 26.6416 12.7813 26.7083 12.7475C26.7751 12.7137 26.8497 12.6985 26.9243 12.7033C26.9813 12.7 27.0384 12.7088 27.0918 12.7292C27.1452 12.7497 27.1935 12.7812 27.2337 12.8219C27.2739 12.8625 27.305 12.9112 27.3249 12.9648C27.3447 13.0183 27.353 13.0755 27.349 13.1325Z" fill="#222222"/>
<path d="M30.4754 12.7304H30.8594V12.945H30.4754V13.433C30.4754 13.5414 30.5138 13.6137 30.6313 13.6137C30.7046 13.6113 30.7761 13.5903 30.8391 13.5527L30.9069 13.7538C30.8188 13.8087 30.717 13.8377 30.6132 13.8373C30.3354 13.8373 30.2382 13.6882 30.2382 13.4375V12.945H30.0191V12.7304H30.2382V12.4029H30.4754V12.7304Z" fill="#222222"/>
<path d="M32.6991 12.7433C32.7492 12.7154 32.8059 12.7016 32.8632 12.7033C32.9201 12.7036 32.9767 12.7135 33.0303 12.7327L32.958 12.9541C32.9114 12.9355 32.8615 12.9263 32.8112 12.927C32.6576 12.927 32.5808 13.0264 32.5808 13.2048V13.8102H32.3459V12.7304H32.5785V12.8615C32.6074 12.8119 32.649 12.7711 32.6991 12.7433Z" fill="#222222"/>
<path d="M29.3934 12.7033C29.548 12.698 29.7009 12.7372 29.8339 12.8163L29.7322 13.006C29.6297 12.9471 29.5139 12.9152 29.3956 12.9134C29.2668 12.9134 29.1901 12.9609 29.1901 13.0399C29.1901 13.1122 29.2714 13.1325 29.373 13.1461L29.4837 13.1619C29.7187 13.1958 29.861 13.2952 29.861 13.4849C29.861 13.6905 29.6803 13.8373 29.3685 13.8373C29.2017 13.8419 29.0378 13.7928 28.9009 13.6973L29.0116 13.5143C29.1153 13.5912 29.2418 13.631 29.3708 13.6273C29.5311 13.6273 29.617 13.5798 29.617 13.4962C29.617 13.4352 29.556 13.4013 29.4272 13.3833L29.3165 13.3675C29.0749 13.3336 28.9438 13.2252 28.9438 13.0489C28.9438 12.8343 29.12 12.7033 29.3934 12.7033Z" fill="#222222"/>
<path d="M35.9633 12.7433C36.0134 12.7154 36.0701 12.7016 36.1274 12.7033C36.1844 12.7036 36.2409 12.7135 36.2946 12.7327L36.2223 12.9541C36.1756 12.9355 36.1257 12.9263 36.0754 12.927C35.9218 12.927 35.845 13.0264 35.845 13.2048V13.8102H35.6101V12.7304H35.8428V12.8615C35.8716 12.8119 35.9132 12.7711 35.9633 12.7433Z" fill="#222222"/>
<path d="M33.138 13.4931C33.1101 13.4223 33.0972 13.3464 33.1003 13.2703C33.0972 13.1942 33.1101 13.1184 33.138 13.0476C33.166 12.9767 33.2085 12.9126 33.2628 12.8592C33.317 12.8058 33.3818 12.7643 33.4531 12.7375C33.5243 12.7106 33.6004 12.699 33.6764 12.7033C33.8175 12.6962 33.956 12.7422 34.0649 12.8321L33.952 13.0219C33.8708 12.9599 33.7717 12.9259 33.6696 12.9247C33.5816 12.93 33.4989 12.9688 33.4385 13.033C33.378 13.0972 33.3443 13.1821 33.3443 13.2703C33.3443 13.3585 33.378 13.4434 33.4385 13.5076C33.4989 13.5719 33.5816 13.6106 33.6696 13.6159C33.7717 13.6148 33.8708 13.5807 33.952 13.5188L34.0649 13.7086C33.956 13.7985 33.8175 13.8444 33.6764 13.8373C33.6004 13.8417 33.5243 13.83 33.4531 13.8032C33.3818 13.7763 33.317 13.7349 33.2627 13.6815C33.2085 13.6281 33.166 13.5639 33.138 13.4931Z" fill="#222222"/>
<path fill-rule="evenodd" clip-rule="evenodd" d="M35.3006 12.7304V13.8102H35.0657V13.6792C35.0256 13.7309 34.9737 13.7722 34.9143 13.7997C34.855 13.8272 34.7899 13.8401 34.7246 13.8373C34.579 13.8302 34.4417 13.7674 34.3412 13.6618C34.2407 13.5562 34.1847 13.4161 34.1847 13.2703C34.1847 13.1246 34.2407 12.9844 34.3412 12.8789C34.4417 12.7733 34.579 12.7105 34.7246 12.7033C34.7899 12.7005 34.855 12.7134 34.9143 12.7409C34.9737 12.7685 35.0256 12.8098 35.0657 12.8615V12.7304H35.3006ZM34.4903 13.0941C34.4522 13.1453 34.43 13.2066 34.4264 13.2703C34.4234 13.3149 34.4296 13.3597 34.4448 13.4018C34.46 13.4439 34.4837 13.4824 34.5145 13.5149C34.5452 13.5473 34.5824 13.5731 34.6236 13.5905C34.6648 13.6079 34.7092 13.6165 34.7539 13.6159C34.8178 13.6157 34.8801 13.5968 34.9333 13.5616C34.9866 13.5263 35.0283 13.4763 35.0534 13.4176C35.0785 13.3589 35.0859 13.2942 35.0746 13.2314C35.0634 13.1686 35.034 13.1104 34.9901 13.0641C34.9462 13.0177 34.8897 12.9853 34.8276 12.9707C34.7655 12.9561 34.7004 12.96 34.6405 12.9819C34.5805 13.0039 34.5283 13.0428 34.4903 13.0941Z" fill="#222222"/>
<path fill-rule="evenodd" clip-rule="evenodd" d="M31.2068 12.8823C31.307 12.7752 31.4449 12.711 31.5914 12.7033C31.8941 12.7033 32.1019 12.9337 32.1041 13.2703C32.1041 13.3019 32.1019 13.3313 32.0996 13.3607H31.2977C31.3067 13.4381 31.3454 13.5089 31.4057 13.5582C31.466 13.6076 31.5431 13.6315 31.6207 13.625C31.735 13.6233 31.8455 13.5835 31.9347 13.512L32.0499 13.686C31.926 13.7891 31.7684 13.843 31.6072 13.8373C31.4605 13.8337 31.321 13.7734 31.2178 13.6691C31.1146 13.5648 31.0558 13.4246 31.0538 13.2779C31.0517 13.1312 31.1066 12.9895 31.2068 12.8823ZM31.7776 12.988C31.7264 12.9388 31.6578 12.912 31.5868 12.9134C31.5143 12.911 31.4436 12.937 31.39 12.986C31.3364 13.035 31.3041 13.103 31.2999 13.1755H31.8602C31.8586 13.1045 31.8289 13.0371 31.7776 12.988Z" fill="#222222"/>
<path fill-rule="evenodd" clip-rule="evenodd" d="M37.4805 12.2967V13.8102H37.2456V13.6792C37.2055 13.7309 37.1536 13.7722 37.0943 13.7997C37.0349 13.8272 36.9698 13.8401 36.9045 13.8373C36.7589 13.8302 36.6217 13.7674 36.5211 13.6618C36.4206 13.5563 36.3646 13.4161 36.3646 13.2703C36.3646 13.1246 36.4206 12.9844 36.5211 12.8789C36.6217 12.7733 36.7589 12.7105 36.9045 12.7033C36.9698 12.7005 37.0349 12.7134 37.0942 12.7409C37.1536 12.7685 37.2055 12.8098 37.2456 12.8615V12.2967H37.4805ZM36.6702 13.0941C36.6322 13.1453 36.61 13.2066 36.6063 13.2703C36.6033 13.3149 36.6096 13.3597 36.6247 13.4018C36.6399 13.4439 36.6636 13.4824 36.6944 13.5149C36.7251 13.5473 36.7623 13.5731 36.8035 13.5905C36.8447 13.6079 36.8891 13.6165 36.9338 13.6159C36.9977 13.6157 37.06 13.5968 37.1132 13.5616C37.1664 13.5264 37.2082 13.4763 37.2333 13.4176C37.2584 13.359 37.2658 13.2942 37.2546 13.2314C37.2433 13.1686 37.2139 13.1104 37.17 13.0641C37.1261 13.0178 37.0696 12.9853 37.0075 12.9707C36.9454 12.9561 36.8803 12.96 36.8204 12.982C36.7605 13.0039 36.7083 13.0429 36.6702 13.0941Z" fill="#222222"/>
<path fill-rule="evenodd" clip-rule="evenodd" d="M37.9081 13.7194C37.8995 13.7132 37.889 13.7101 37.8785 13.7108H37.8324V13.8105H37.8538V13.7732H37.8635L37.8937 13.8105H37.9192L37.8866 13.7729C37.8954 13.7723 37.9036 13.7688 37.9102 13.763C37.9129 13.7604 37.915 13.7572 37.9165 13.7537C37.9179 13.7502 37.9186 13.7464 37.9185 13.7427C37.9186 13.7382 37.9178 13.7338 37.916 13.7298C37.9142 13.7258 37.9115 13.7222 37.9081 13.7194ZM37.8538 13.7561V13.7295H37.8782C37.8829 13.7293 37.8876 13.7304 37.8916 13.7328C37.8933 13.7338 37.8946 13.7353 37.8955 13.737C37.8963 13.7388 37.8967 13.7407 37.8966 13.7427C37.8968 13.7446 37.8964 13.7466 37.8955 13.7484C37.8951 13.7492 37.8946 13.75 37.894 13.7507C37.8933 13.7515 37.8925 13.7522 37.8916 13.7528C37.8876 13.7552 37.8829 13.7563 37.8782 13.7561H37.8538Z" fill="#222222"/>
<path fill-rule="evenodd" clip-rule="evenodd" d="M37.9147 13.6622C37.9012 13.6565 37.8867 13.6536 37.8722 13.6537C37.8573 13.6536 37.8426 13.6565 37.8289 13.6622C37.8159 13.6675 37.804 13.6753 37.7941 13.6852C37.7842 13.695 37.7763 13.7066 37.7708 13.7194C37.7651 13.7325 37.7622 13.7467 37.7622 13.761C37.7622 13.7753 37.7651 13.7895 37.7708 13.8026C37.7793 13.8224 37.7935 13.8391 37.8115 13.8508C37.8296 13.8625 37.8507 13.8686 37.8722 13.8684C37.8868 13.8685 37.9012 13.8656 37.9147 13.8598C37.9276 13.8544 37.9393 13.8465 37.9494 13.8367C37.9593 13.8269 37.9672 13.8154 37.9728 13.8026C37.9784 13.7895 37.9813 13.7753 37.9813 13.761C37.9813 13.7467 37.9784 13.7325 37.9728 13.7194C37.9672 13.7066 37.9593 13.695 37.9494 13.6852C37.9394 13.6754 37.9276 13.6676 37.9147 13.6622ZM37.9045 13.8381C37.8943 13.8426 37.8833 13.8448 37.8722 13.8447C37.8608 13.8448 37.8496 13.8426 37.8391 13.8381C37.8292 13.834 37.8201 13.8279 37.8125 13.8203C37.7968 13.8045 37.7881 13.7832 37.7881 13.7611C37.7881 13.7389 37.7968 13.7176 37.8125 13.7019C37.8201 13.6943 37.8292 13.6882 37.8391 13.6841C37.8496 13.6798 37.8608 13.6776 37.8722 13.6777C37.8833 13.6776 37.8943 13.6798 37.9045 13.6841C37.9143 13.6883 37.9233 13.6943 37.9308 13.7019C37.9464 13.7176 37.9552 13.7389 37.9552 13.7611C37.9552 13.7832 37.9464 13.8045 37.9308 13.8203C37.9233 13.8278 37.9143 13.8339 37.9045 13.8381Z" fill="#222222"/>
<path fill-rule="evenodd" clip-rule="evenodd" d="M28.6728 12.7304V13.8102H28.4378V13.6792C28.3977 13.7309 28.3458 13.7722 28.2865 13.7997C28.2271 13.8272 28.1621 13.8401 28.0967 13.8373C27.9511 13.8302 27.8139 13.7674 27.7134 13.6618C27.6129 13.5562 27.5568 13.4161 27.5568 13.2703C27.5568 13.1246 27.6129 12.9844 27.7134 12.8789C27.8139 12.7733 27.9511 12.7105 28.0967 12.7033C28.1621 12.7005 28.2271 12.7134 28.2865 12.7409C28.3458 12.7685 28.3977 12.8098 28.4378 12.8615V12.7304H28.6728ZM27.8624 13.0941C27.8244 13.1453 27.8022 13.2066 27.7985 13.2703C27.7955 13.3149 27.8018 13.3597 27.817 13.4018C27.8321 13.4439 27.8558 13.4824 27.8866 13.5149C27.9174 13.5473 27.9545 13.5731 27.9958 13.5905C28.037 13.6079 28.0813 13.6165 28.1261 13.6159C28.1899 13.6157 28.2522 13.5968 28.3055 13.5616C28.3587 13.5264 28.4004 13.4763 28.4255 13.4176C28.4506 13.359 28.458 13.2942 28.4468 13.2314C28.4355 13.1686 28.4062 13.1104 28.3623 13.0641C28.3184 13.0178 28.2619 12.9853 28.1997 12.9707C28.1376 12.9561 28.0726 12.96 28.0126 12.982C27.9527 13.0039 27.9005 13.0429 27.8624 13.0941Z" fill="#222222"/>
<path d="M46.9331 4.18091H55.9049V9.02418L55.4609 9.71805L55.9049 10.3356V13.1527H46.9331V8.58703L47.2107 8.26785L46.9331 7.96254V4.18091Z" fill="#222222"/>
<path d="M48.6747 10.4328V9.02418H50.1661L50.3262 9.23278L50.4915 9.02418H55.9049V10.3356C55.9049 10.3356 55.7634 10.4314 55.5996 10.4328H52.6021L52.4217 10.2107V10.4328H51.8305V10.0537C51.8305 10.0537 51.7497 10.1066 51.5751 10.1066H51.3739V10.4328H50.4788L50.319 10.2197L50.1568 10.4328L48.6747 10.4328ZM46.9331 7.96255L47.2694 7.17847H47.8511L48.0419 7.61768V7.17847H48.7649L48.8786 7.49592L48.9887 7.17847H52.2343V7.33806C52.2343 7.33806 52.4049 7.17847 52.6854 7.17847L53.7384 7.18215L53.926 7.61561V7.17847H54.5311L54.6976 7.42745V7.17847H55.3082V8.58704H54.6976L54.538 8.33724V8.58703H53.649L53.5596 8.365H53.3207L53.2327 8.58703H52.6298C52.3886 8.58703 52.2343 8.43071 52.2343 8.43071V8.58703H51.3253L51.1449 8.365V8.58704H47.7649L47.6756 8.365H47.4373L47.3486 8.58703H46.9331V7.96255Z" fill="white"/>
<path d="M47.3882 7.35199L46.9346 8.40668H47.2299L47.3136 8.19548H47.8002L47.8834 8.40668H48.1853L47.7321 7.35199H47.3882ZM47.556 7.59744L47.7043 7.9665H47.4073L47.556 7.59744ZM48.2165 8.4065V7.35181L48.6362 7.35336L48.8803 8.03337L49.1185 7.35181H49.5349V8.4065H49.2712V7.62936L48.9917 8.4065H48.7605L48.4802 7.62936V8.4065H48.2165ZM49.7153 8.4065V7.35181H50.5757V7.58772H49.9817V7.76813H50.5618V7.99018H49.9817V8.17753H50.5757V8.4065H49.7153ZM50.7283 7.35199V8.40668H50.992V8.03198H51.103L51.4192 8.40668H51.7414L51.3945 8.0181C51.5368 8.00609 51.6837 7.88388 51.6837 7.69415C51.6837 7.47221 51.5095 7.35199 51.3151 7.35199H50.7283ZM50.992 7.5879H51.2934C51.3657 7.5879 51.4183 7.64446 51.4183 7.69892C51.4183 7.76898 51.3502 7.80994 51.2973 7.80994H50.992V7.5879ZM52.0606 8.4065H51.7914V7.35181H52.0606V8.4065ZM52.6989 8.4065H52.6408C52.3597 8.4065 52.189 8.18497 52.189 7.88349C52.189 7.57455 52.3578 7.35181 52.7128 7.35181H53.0043V7.6016H52.7022C52.558 7.6016 52.4561 7.71409 52.4561 7.88609C52.4561 8.09034 52.5727 8.17613 52.7406 8.17613H52.81L52.6989 8.4065ZM53.2727 7.35199L52.8191 8.40668H53.1144L53.1981 8.19548H53.6847L53.768 8.40668H54.0698L53.6166 7.35199H53.2727ZM53.4405 7.59744L53.5889 7.9665H53.2918L53.4405 7.59744ZM54.1006 8.4065V7.35181H54.4358L54.8638 8.01446V7.35181H55.1275V8.4065H54.8031L54.3643 7.7265V8.4065H54.1006ZM48.8549 10.2522V9.19752H49.7153V9.43343H49.1213V9.61385H49.7014V9.83589H49.1213V10.0232H49.7153V10.2522H48.8549ZM53.0709 10.2522V9.19752H53.9313V9.43343H53.3373V9.61385H53.9146V9.83589H53.3373V10.0232H53.9313V10.2522H53.0709ZM49.7487 10.2522L50.1676 9.73138L49.7387 9.19752H50.0709L50.3263 9.52754L50.5826 9.19752H50.9018L50.4786 9.72486L50.8983 10.2522H50.5661L50.3181 9.92739L50.0761 10.2522H49.7487ZM50.9296 9.1977V10.2524H51.2002V9.91934H51.4777C51.7126 9.91934 51.8906 9.79474 51.8906 9.55245C51.8906 9.35172 51.751 9.1977 51.512 9.1977H50.9296ZM51.2002 9.43622H51.4925C51.5683 9.43622 51.6226 9.48272 51.6226 9.55764C51.6226 9.62803 51.5686 9.67907 51.4916 9.67907H51.2002V9.43622ZM52.0051 9.19752V10.2522H52.2687V9.87751H52.3798L52.6959 10.2522H53.0181L52.6712 9.86364C52.8136 9.85163 52.9605 9.72941 52.9605 9.53968C52.9605 9.31774 52.7863 9.19752 52.5918 9.19752H52.0051ZM52.2687 9.43343H52.5702C52.6425 9.43343 52.6951 9.48999 52.6951 9.54446C52.6951 9.61452 52.6269 9.65547 52.5741 9.65547H52.2687V9.43343ZM54.0534 10.2522V10.0232H54.5811C54.6592 10.0232 54.693 9.98104 54.693 9.93476C54.693 9.89042 54.6593 9.8456 54.5811 9.8456H54.3426C54.1354 9.8456 54.0199 9.71932 54.0199 9.52972C54.0199 9.3606 54.1256 9.19752 54.4337 9.19752H54.9471L54.8361 9.43483H54.392C54.3071 9.43483 54.281 9.47937 54.281 9.52191C54.281 9.56562 54.3133 9.61385 54.3781 9.61385H54.6279C54.859 9.61385 54.9593 9.74491 54.9593 9.91655C54.9593 10.1011 54.8475 10.2522 54.6154 10.2522H54.0534ZM55.0211 10.2522V10.0232H55.5488C55.6269 10.0232 55.6607 9.98104 55.6607 9.93476C55.6607 9.89042 55.627 9.8456 55.5488 9.8456H55.3104C55.1031 9.8456 54.9877 9.71932 54.9877 9.52972C54.9877 9.3606 55.0934 9.19752 55.4014 9.19752H55.9149L55.8038 9.43483H55.3598C55.2749 9.43483 55.2487 9.47937 55.2487 9.52191C55.2487 9.56562 55.281 9.61385 55.3459 9.61385H55.5957C55.8267 9.61385 55.927 9.74491 55.927 9.91655C55.927 10.1011 55.8153 10.2522 55.5831 10.2522H55.0211Z" fill="#222222"/>
</svg>
