<svg width="62" height="28" viewBox="0 0 62 28" fill="none" xmlns="http://www.w3.org/2000/svg">
<rect x="1.03733" y="0.712872" width="59.7955" height="26.068" rx="10.7938" fill="white"/>
<rect x="1.03733" y="0.712872" width="59.7955" height="26.068" rx="10.7938" stroke="#F3F3F3" stroke-width="1.13619"/>
<path d="M18.5907 7.93369C18.1429 8.46359 17.4264 8.88153 16.7099 8.82183C16.6203 8.10535 16.9711 7.34409 17.3816 6.8739C17.8294 6.32908 18.6131 5.94099 19.2474 5.91113C19.3221 6.65746 19.031 7.38887 18.5907 7.93369ZM19.24 8.96363C18.2026 8.90392 17.3144 9.55323 16.8219 9.55323C16.3218 9.55323 15.568 8.99348 14.7471 9.00841C13.6798 9.02334 12.6872 9.62787 12.1424 10.5906C11.0229 12.5162 11.8513 15.3672 12.9335 16.9345C13.4634 17.7106 14.0977 18.5615 14.9336 18.5316C15.7247 18.5018 16.0382 18.0166 16.9935 18.0166C17.9563 18.0166 18.2324 18.5316 19.0683 18.5167C19.9341 18.5018 20.4789 17.7405 21.0088 16.9643C21.6133 16.0836 21.8596 15.2254 21.8745 15.1806C21.8596 15.1656 20.2027 14.5313 20.1878 12.6207C20.1729 11.0235 21.4939 10.2622 21.5536 10.2175C20.8073 9.1129 19.643 8.99348 19.24 8.96363ZM25.233 6.79927V18.4346H27.0391V14.4566H29.5394C31.8231 14.4566 33.4277 12.8893 33.4277 10.6205C33.4277 8.35164 31.853 6.79927 29.5991 6.79927H25.233ZM27.0391 8.32178H29.1214C30.6887 8.32178 31.5843 9.15768 31.5843 10.628C31.5843 12.0982 30.6887 12.9416 29.1139 12.9416H27.0391V8.32178ZM36.7265 18.5241C37.861 18.5241 38.9133 17.9495 39.3909 17.0389H39.4283V18.4346H41.1V12.643C41.1 10.9638 39.7566 9.88162 37.6893 9.88162C35.7712 9.88162 34.3532 10.9787 34.301 12.4863H35.928C36.0623 11.7698 36.7265 11.2996 37.6371 11.2996C38.7416 11.2996 39.3611 11.8146 39.3611 12.7625V13.4043L37.1072 13.5386C35.01 13.6655 33.8755 14.5238 33.8755 16.0165C33.8755 17.5241 35.0473 18.5241 36.7265 18.5241ZM37.2116 17.1434C36.2489 17.1434 35.6369 16.6807 35.6369 15.9717C35.6369 15.2403 36.2265 14.8149 37.3534 14.7477L39.3611 14.6208V15.2776C39.3611 16.3672 38.4356 17.1434 37.2116 17.1434ZM43.3316 21.599C45.0929 21.599 45.9213 20.9273 46.6453 18.8898L49.8172 9.99357H47.9812L45.8542 16.8673H45.8169L43.6898 9.99357H41.8016L44.8615 18.4644L44.6974 18.9794C44.4212 19.8526 43.9734 20.1885 43.1748 20.1885C43.033 20.1885 42.7569 20.1735 42.6449 20.1586V21.5542C42.7494 21.5841 43.1972 21.599 43.3316 21.599Z" fill="#222222"/>
</svg>
