<svg width="26" height="32" viewBox="0 0 26 32" fill="none" xmlns="http://www.w3.org/2000/svg">
<g clip-path="url(#clip0_362_1328)">
<path d="M22.4742 32.0002H3.52678C3.49912 31.9865 3.47271 31.9664 3.44317 31.9601C1.46614 31.5219 0.425126 30.1954 0.52445 28.1746C0.657719 25.4614 0.819905 22.7501 0.972033 20.0374C1.15119 16.8372 1.33601 13.637 1.51202 10.4361C1.5598 9.56465 1.98161 9.14523 2.85352 9.14397C4.20193 9.14211 5.55033 9.14397 6.89874 9.14397C7.01001 9.14397 7.12065 9.14397 7.25706 9.14397C7.25706 8.96618 7.25643 8.83223 7.25706 8.69827C7.26523 7.55327 7.22626 6.40573 7.29101 5.26448C7.48022 1.94341 10.7529 -0.546304 14.0268 0.104138C16.8122 0.657546 18.6937 2.90999 18.7239 5.73901C18.7346 6.74879 18.7258 7.75859 18.7258 8.76838C18.7258 8.88037 18.7258 8.99245 18.7258 9.14397C18.8697 9.14397 18.981 9.14397 19.0922 9.14397C20.4721 9.14397 21.8519 9.13958 23.2317 9.14583C23.9541 9.14895 24.4324 9.58594 24.4721 10.2827C24.6267 12.984 24.7725 15.6866 24.924 18.3879C25.0391 20.435 25.1591 22.4815 25.2742 24.5286C25.3484 25.8483 25.4483 27.1673 25.4797 28.4882C25.5124 29.8661 24.8826 30.9141 23.6749 31.5801C23.3091 31.7817 22.8759 31.8637 22.4742 32.0002ZM16.4256 9.12834C16.4256 7.88317 16.4376 6.67805 16.4175 5.47295C16.4124 5.17746 16.3344 4.87321 16.2364 4.5915C15.6895 3.01955 14.0764 2.06736 12.4483 2.33843C10.8006 2.61263 9.58804 3.99364 9.55662 5.65825C9.53899 6.6048 9.55221 7.55133 9.55155 8.49853C9.55155 8.70385 9.55155 8.90917 9.55155 9.12834H16.4256Z" fill="white"/>
</g>
<defs>
<clipPath id="clip0_362_1328">
<rect width="26" height="32" fill="white"/>
</clipPath>
</defs>
</svg>
