<svg width="20" height="25" viewBox="0 0 20 25" fill="none" xmlns="http://www.w3.org/2000/svg">
<path d="M9.17157 3.58447H5C3.11438 3.58447 2.17157 3.58447 1.58579 4.17026C1 4.75605 1 5.69885 1 7.58447V17.5845C1 19.4701 1 20.4129 1.58579 20.9987C2.17157 21.5845 3.11438 21.5845 5 21.5845H11C12.8856 21.5845 13.8284 21.5845 14.4142 20.9987C15 20.4129 15 19.4701 15 17.5845V9.4129C15 9.00415 15 8.79977 14.9239 8.616C14.8478 8.43223 14.7032 8.28772 14.4142 7.99869L10.5858 4.17026C10.2968 3.88123 10.1522 3.73671 9.96847 3.66059C9.7847 3.58447 9.58032 3.58447 9.17157 3.58447Z" stroke="#9E007E" stroke-width="2"/>
<path d="M5 13.5845L11 13.5845" stroke="#9E007E" stroke-width="2" stroke-linecap="round"/>
<path d="M5 17.5845L9 17.5845" stroke="#9E007E" stroke-width="2" stroke-linecap="round"/>
<path d="M9 3.58447V7.58447C9 8.52728 9 8.99869 9.29289 9.29158C9.58579 9.58447 10.0572 9.58447 11 9.58447H15" stroke="#9E007E" stroke-width="2"/>
</svg>
