<svg width="95" height="27" viewBox="0 0 95 27" fill="none" xmlns="http://www.w3.org/2000/svg">
<rect x="0.968487" y="1.07493" width="93.1678" height="25.3439" rx="10.7938" fill="white"/>
<rect x="0.968487" y="1.07493" width="93.1678" height="25.3439" rx="10.7938" stroke="#F3F3F3" stroke-width="1.13619"/>
<path d="M77.6898 10.5811L79.8003 15.6782H79.8252L81.8859 10.5811H83.3422L78.8994 20.8122H77.5173L79.1711 17.2332L76.2459 10.5811H77.6898ZM72.9015 10.3467C73.8887 10.3467 74.666 10.6058 75.2338 11.1365C75.8017 11.6672 76.0854 12.383 76.0854 13.3086V17.6898H74.8141V16.7025H74.7527C74.1973 17.5171 73.4689 17.9243 72.5555 17.9243C71.7782 17.9243 71.1241 17.6898 70.5936 17.2332C70.0626 16.7642 69.8034 16.1842 69.8034 15.493C69.8034 14.7649 70.0751 14.1725 70.6429 13.7405C71.1983 13.3086 71.9387 13.0864 72.8641 13.0864C73.6539 13.0864 74.308 13.2346 74.8265 13.5184V13.2098C74.8265 12.7409 74.6415 12.3583 74.2711 12.0251C73.9011 11.7042 73.4689 11.5437 72.9753 11.5437C72.2349 11.5437 71.6426 11.8523 71.2103 12.4817L70.0381 11.7412C70.6798 10.8156 71.6426 10.3467 72.9015 10.3467ZM66.1627 7.29834C67.0637 7.29834 67.829 7.59454 68.4582 8.19928C69.0999 8.804 69.4085 9.53213 69.4085 10.3837C69.4085 11.26 69.0874 12.0004 68.4582 12.5805C67.841 13.1729 67.0761 13.4691 66.1627 13.4691H63.966V17.6775H62.6328V7.29834H66.1627ZM73.074 14.1355C72.531 14.1355 72.0868 14.2712 71.7164 14.5304C71.3584 14.8019 71.1734 15.1228 71.1734 15.5054C71.1734 15.851 71.3215 16.1471 71.6177 16.3693C71.9138 16.6038 72.2593 16.7149 72.6542 16.7149C73.2096 16.7149 73.7157 16.505 74.1599 16.0978C74.6042 15.6782 74.8141 15.1968 74.8141 14.6291C74.3947 14.2959 73.8144 14.1355 73.074 14.1355ZM66.1996 8.5942H63.966V12.2102H66.1996C66.7306 12.2102 67.1748 12.0375 67.5203 11.6796C67.8783 11.3217 68.0508 10.9021 68.0508 10.4084C68.0508 9.9271 67.8783 9.50745 67.5203 9.14957C67.1748 8.77932 66.7306 8.5942 66.1996 8.5942Z" fill="#222222"/>
<path d="M43.8002 10.3591C44.7011 10.3591 45.4171 10.754 45.7875 11.1983H45.8489V10.5812H47.4288V17.369C47.4288 20.1582 45.7875 21.3059 43.8376 21.3059C42.0108 21.3059 40.9124 20.0718 40.4927 19.0722L41.937 18.4674C42.1958 19.0845 42.8255 19.8126 43.8376 19.8126C45.084 19.8126 45.8489 19.0351 45.8489 17.5912V17.0481H45.7875C45.4171 17.5048 44.7011 17.912 43.8002 17.912C41.9121 17.912 40.1845 16.2706 40.1845 14.1479C40.1845 12.0128 41.9121 10.3591 43.8002 10.3591ZM54.6612 10.3714C56.6236 10.3714 57.5739 11.9265 57.8945 12.778L58.0675 13.21L53.0199 15.2957C53.4023 16.0485 54.0071 16.4434 54.8462 16.4434C55.6857 16.4188 56.2781 16.0115 56.7099 15.3821L57.9932 16.246C57.5739 16.8631 56.5742 17.9244 54.8462 17.9244C52.6988 17.9244 51.1068 16.2706 51.1068 14.1479C51.1068 11.9017 52.7237 10.3714 54.6612 10.3714ZM17.7113 6.18774C19.5008 6.18774 20.772 6.89121 21.7222 7.80447L20.5868 8.93988C19.8957 8.29816 18.9701 7.79215 17.6989 7.79215C15.3417 7.79215 13.4905 9.69273 13.4905 12.05C13.4905 14.4071 15.3294 16.3078 17.6989 16.3078C19.2293 16.3078 20.1055 15.6907 20.6609 15.1353C21.1175 14.6787 21.4137 14.0246 21.5371 13.1237H17.6619V11.5193H23.0921C23.1539 11.8031 23.1785 12.1487 23.1785 12.5189C23.1785 13.7161 22.8453 15.2094 21.7963 16.2707C20.7596 17.3444 19.4514 17.9122 17.7113 17.9122C14.4778 17.9122 11.7627 15.2834 11.7627 12.05C11.7627 8.81648 14.4778 6.18774 17.7113 6.18774ZM27.5232 10.3591C29.609 10.3591 31.3121 11.9511 31.3121 14.1355C31.3121 16.3076 29.609 17.912 27.5232 17.912C25.4375 17.912 23.7344 16.3076 23.7344 14.1355C23.7344 11.9511 25.4375 10.3591 27.5232 10.3591ZM35.767 10.3591C37.8526 10.3591 39.5557 11.9511 39.5557 14.1355C39.5557 16.3076 37.8526 17.912 35.767 17.912C33.681 17.912 31.9778 16.3076 31.9778 14.1355C31.9778 11.9511 33.681 10.3591 35.767 10.3591ZM50.2802 6.58271V17.6777H48.6264V6.58271H50.2802ZM27.5356 11.8524C26.4002 11.8524 25.4129 12.778 25.4129 14.1355C25.4129 15.4807 26.4002 16.4187 27.5356 16.4187C28.671 16.4187 29.6584 15.4807 29.6584 14.1355C29.6584 12.778 28.671 11.8524 27.5356 11.8524ZM35.767 11.8524C34.6313 11.8524 33.6441 12.778 33.6441 14.1355C33.6441 15.4807 34.6313 16.4187 35.767 16.4187C36.9023 16.4187 37.8895 15.4807 37.8895 14.1355C37.8895 12.778 36.9023 11.8524 35.767 11.8524ZM43.9607 11.84C42.813 11.84 41.8627 12.815 41.8627 14.1479C41.8627 15.4684 42.8255 16.4187 43.9607 16.4187C45.084 16.4187 45.9725 15.4684 45.9725 14.1479C45.9725 12.815 45.084 11.84 43.9607 11.84ZM54.7106 11.8154C53.8714 11.8154 52.6988 12.5682 52.7482 14.0245L56.1175 12.6176C55.9325 12.1486 55.3771 11.8154 54.7106 11.8154Z" fill="#222222"/>
</svg>
