<svg width="24" height="20" viewBox="0 0 24 20" fill="none" xmlns="http://www.w3.org/2000/svg">
<path d="M16.8661 1.92505H2V14.5387H16.8661V1.92505Z" stroke="#9E007E" stroke-width="2.25244" stroke-linecap="round" stroke-linejoin="round"/>
<path d="M16.8657 6.88037H19.3434C20.12 6.88037 20.8648 7.18888 21.4139 7.73801C21.9631 8.28715 22.2716 9.03194 22.2716 9.80854V14.5387H16.8657V6.88037Z" stroke="#9E007E" stroke-width="2.25244" stroke-linecap="round" stroke-linejoin="round"/>
<path d="M7.13986 18.0752C7.73947 18.0752 8.22555 17.5891 8.22555 16.9895C8.22555 16.3899 7.73947 15.9038 7.13986 15.9038C6.54026 15.9038 6.0542 16.3899 6.0542 16.9895C6.0542 17.5891 6.54026 18.0752 7.13986 18.0752Z" stroke="#9E007E" stroke-width="2.25244" stroke-linecap="round" stroke-linejoin="round"/>
<path d="M16.4558 18.0752C17.0554 18.0752 17.5415 17.5891 17.5415 16.9895C17.5415 16.3899 17.0554 15.9038 16.4558 15.9038C15.8562 15.9038 15.3701 16.3899 15.3701 16.9895C15.3701 17.5891 15.8562 18.0752 16.4558 18.0752Z" stroke="#9E007E" stroke-width="2.25244" stroke-linecap="round" stroke-linejoin="round"/>
<path d="M2.4502 6.9751H7.85605" stroke="#9E007E" stroke-width="2.25244" stroke-linecap="round" stroke-linejoin="round"/>
</svg>
