<svg width="17" height="16" viewBox="0 0 17 16" fill="none" xmlns="http://www.w3.org/2000/svg">
<g clip-path="url(#clip0_362_1404)">
<path d="M7.16681 16.0005C7.0088 16.0013 6.8543 15.9539 6.72397 15.8645C6.59363 15.7752 6.49367 15.6482 6.43744 15.5005L5.19244 12.263C5.16722 12.1978 5.12865 12.1385 5.07919 12.0891C5.02973 12.0396 4.97049 12.0011 4.90525 11.9758L1.66681 10.7299C1.51929 10.6733 1.39241 10.5733 1.30291 10.443C1.21341 10.3128 1.1655 10.1585 1.1655 10.0005C1.1655 9.84251 1.21341 9.68822 1.30291 9.558C1.39241 9.42778 1.51929 9.32777 1.66681 9.27115L4.90431 8.02615C4.96955 8.00093 5.0288 7.96236 5.07825 7.9129C5.12771 7.86345 5.16628 7.8042 5.1915 7.73896L6.43744 4.50052C6.49405 4.35301 6.59407 4.22612 6.72429 4.13662C6.85451 4.04712 7.0088 3.99921 7.16681 3.99921C7.32482 3.99921 7.47912 4.04712 7.60933 4.13662C7.73955 4.22612 7.83957 4.35301 7.89619 4.50052L9.14119 7.73802C9.1664 7.80326 9.20497 7.86251 9.25443 7.91197C9.30389 7.96142 9.36314 8 9.42837 8.02521L12.6471 9.26365C12.8006 9.32055 12.9329 9.42339 13.0259 9.55815C13.1189 9.69291 13.1681 9.85305 13.1668 10.0168C13.1644 10.172 13.1155 10.323 13.0264 10.4501C12.9372 10.5773 12.812 10.6747 12.6668 10.7299L9.42931 11.9749C9.36407 12.0001 9.30482 12.0387 9.25537 12.0881C9.20591 12.1376 9.16734 12.1968 9.14212 12.2621L7.89619 15.5005C7.83995 15.6482 7.73999 15.7752 7.60966 15.8645C7.47932 15.9539 7.32483 16.0013 7.16681 16.0005Z" fill="white"/>
<path d="M3.41681 5.50052C3.32417 5.50052 3.23371 5.47245 3.15734 5.42001C3.08097 5.36757 3.02228 5.29323 2.989 5.20677L2.46212 3.83677C2.4507 3.80681 2.43308 3.7796 2.41041 3.75693C2.38773 3.73426 2.36052 3.71663 2.33056 3.70521L0.960561 3.17834C0.874117 3.14505 0.799785 3.08635 0.747359 3.00998C0.694932 2.93362 0.66687 2.84316 0.66687 2.75052C0.66687 2.65789 0.694932 2.56743 0.747359 2.49106C0.799785 2.4147 0.874117 2.356 0.960561 2.32271L2.33056 1.79584C2.36049 1.78437 2.38768 1.76672 2.41034 1.74406C2.43301 1.72139 2.45065 1.69421 2.46212 1.66427L2.98431 0.306461C3.01376 0.226525 3.06444 0.156124 3.13089 0.102827C3.19735 0.0495292 3.27707 0.0153496 3.3615 0.00396142C3.46286 -0.00836038 3.56543 0.0135079 3.65295 0.0660987C3.74047 0.118689 3.80792 0.198992 3.84462 0.294274L4.3715 1.66427C4.38297 1.69421 4.40061 1.72139 4.42328 1.74406C4.44595 1.76672 4.47313 1.78437 4.50306 1.79584L5.87306 2.32271C5.95951 2.356 6.03384 2.4147 6.08626 2.49106C6.13869 2.56743 6.16675 2.65789 6.16675 2.75052C6.16675 2.84316 6.13869 2.93362 6.08626 3.00998C6.03384 3.08635 5.95951 3.14505 5.87306 3.17834L4.50306 3.70521C4.4731 3.71663 4.44589 3.73426 4.42322 3.75693C4.40054 3.7796 4.38292 3.80681 4.3715 3.83677L3.84462 5.20677C3.81134 5.29323 3.75265 5.36757 3.67628 5.42001C3.59991 5.47245 3.50945 5.50052 3.41681 5.50052Z" fill="white"/>
<path d="M13.1668 8.00052C13.0658 8.00049 12.9671 7.96984 12.8838 7.9126C12.8005 7.85536 12.7365 7.77423 12.7002 7.6799L11.9865 5.82459C11.9739 5.79189 11.9547 5.7622 11.9299 5.73744C11.9051 5.71268 11.8754 5.69339 11.8427 5.68084L9.98744 4.96709C9.89318 4.93077 9.81213 4.86675 9.75497 4.78347C9.69781 4.70018 9.66721 4.60154 9.66721 4.50052C9.66721 4.39951 9.69781 4.30087 9.75497 4.21758C9.81213 4.1343 9.89318 4.07028 9.98744 4.03396L11.8427 3.32021C11.8754 3.30766 11.9051 3.28837 11.9299 3.26361C11.9547 3.23884 11.9739 3.20915 11.9865 3.17646L12.6949 1.33427C12.7273 1.24716 12.7826 1.17044 12.8551 1.11228C12.9276 1.05411 13.0144 1.01668 13.1065 1.00396C13.2171 0.990572 13.329 1.01451 13.4245 1.07197C13.5199 1.12944 13.5934 1.21713 13.6334 1.32115L14.3471 3.17646C14.3597 3.20915 14.379 3.23884 14.4037 3.26361C14.4285 3.28837 14.4582 3.30766 14.4909 3.32021L16.3462 4.03396C16.4404 4.07028 16.5215 4.1343 16.5787 4.21758C16.6358 4.30087 16.6664 4.39951 16.6664 4.50052C16.6664 4.60154 16.6358 4.70018 16.5787 4.78347C16.5215 4.86675 16.4404 4.93077 16.3462 4.96709L14.4909 5.68084C14.4582 5.69339 14.4285 5.71268 14.4037 5.73744C14.379 5.7622 14.3597 5.79189 14.3471 5.82459L13.6334 7.6799C13.5971 7.77423 13.5331 7.85536 13.4498 7.9126C13.3665 7.96984 13.2679 8.00049 13.1668 8.00052Z" fill="white"/>
</g>
<defs>
<clipPath id="clip0_362_1404">
<rect width="16" height="16" fill="white" transform="translate(0.666748)"/>
</clipPath>
</defs>
</svg>
