<?xml version="1.0" encoding="utf-8"?>
<!-- Generator: Adobe Illustrator 16.0.0, SVG Export Plug-In . SVG Version: 6.00 Build 0)  -->
<!DOCTYPE svg PUBLIC "-//W3C//DTD SVG 1.1//EN" "http://www.w3.org/Graphics/SVG/1.1/DTD/svg11.dtd">
<svg version="1.1" id="Layer_1" xmlns="http://www.w3.org/2000/svg" xmlns:xlink="http://www.w3.org/1999/xlink" x="0px" y="0px"
	 width="100px" height="100px" viewBox="0 0 100 100" enable-background="new 0 0 100 100" xml:space="preserve">
<g>
	<path fill="#C8C7CC" d="M100,89c0,6.075-4.925,11-11,11H11c-6.075,0-11-4.925-11-11V11C0,4.925,4.925,0,11,0h78
		c6.075,0,11,4.925,11,11V89z"/>
	<g>
		<path fill="#9B247F" d="M48.284,46.44c1.312-2.535,4.59-3.646,7.296-2.298l16.312,7.921l8.442-16.159
			c1.885-3.565,0.41-8.001-3.359-9.824l-31.478-15.29c-3.688-1.821-8.278-0.396-10.163,3.249l-15.82,30.34
			c-1.885,3.566-0.409,8.002,3.361,9.825l17.049,8.316L48.284,46.44z"/>
		<path fill="#E47325" d="M40.003,72.579L50.658,52.22c1.229-2.378,4.263-3.407,6.802-2.14l21.067,10.299
			c2.459,1.188,3.523,4.119,2.211,6.577L70.085,87.314c-1.229,2.376-4.265,3.406-6.803,2.14L42.216,79.153
			C39.675,77.965,38.689,74.955,40.003,72.579z"/>
		<path fill="#FFFFFF" d="M60.495,78.676c0.242-0.318,0.572-0.633,0.982-0.87c0.41-0.24,0.818-0.396,1.229-0.555
			c0.492-0.16,0.902-0.16,1.395-0.16c0.407,0,0.902,0.082,1.309,0.238c0.576,0.236,1.151-0.078,1.395-0.631
			c0.248-0.555-0.081-1.11-0.654-1.347c-0.656-0.237-1.313-0.399-1.969-0.399s-1.393,0-2.049,0.237
			c-0.654,0.162-1.311,0.477-1.885,0.873c-0.572,0.396-1.064,0.792-1.475,1.347c-0.33,0.475-0.246,1.11,0.162,1.426
			C59.509,79.231,60.165,79.153,60.495,78.676z"/>
		<path fill="#FFFFFF" d="M57.378,75.033c1.064-1.107,2.458-1.899,4.02-2.376c1.637-0.394,3.194-0.394,4.752,0
			c0.573,0.158,1.146-0.156,1.313-0.712c0.161-0.555-0.168-1.109-0.74-1.27c-1.886-0.474-3.933-0.552-5.901,0
			c-2.049,0.556-3.772,1.588-5.082,2.932c-0.41,0.396-0.41,1.11,0.084,1.426C56.314,75.432,56.968,75.432,57.378,75.033z"/>
		<path fill="#FFFFFF" d="M54.343,71.945c1.561-1.506,3.608-2.694,5.904-3.33c2.295-0.631,4.672-0.631,6.886-0.078
			c0.572,0.159,1.146-0.159,1.31-0.715c0.165-0.555-0.164-1.106-0.737-1.266c-2.541-0.633-5.244-0.633-7.95,0.081
			c-2.706,0.711-5.082,2.14-6.887,3.88c-0.41,0.396-0.41,1.029,0,1.506C53.278,72.339,53.935,72.339,54.343,71.945z"/>
		<path fill="#FFFFFF" d="M51.313,68.855c2.05-1.981,4.753-3.565,7.789-4.357c3.03-0.792,6.146-0.792,8.934-0.159
			c0.572,0.159,1.145-0.236,1.313-0.792c0.162-0.555-0.168-1.107-0.821-1.269c-3.197-0.793-6.639-0.793-10.084,0.161
			c-3.44,0.949-6.393,2.614-8.687,4.909c-0.41,0.399-0.41,1.029,0,1.429C50.247,69.251,50.902,69.251,51.313,68.855z"/>
	</g>
</g>
</svg>
