<svg width="153" height="31" viewBox="0 0 153 31" fill="none" xmlns="http://www.w3.org/2000/svg">
<g clip-path="url(#clip0_206_2627)">
<path fill-rule="evenodd" clip-rule="evenodd" d="M25.0546 25.6085H20.3359L23.3007 7.32861H28.0193L25.0546 25.6085Z" fill="#005C9C"/>
<path fill-rule="evenodd" clip-rule="evenodd" d="M16.369 7.32866L11.8592 19.8803L11.3163 17.1846L9.72953 8.97132C9.72953 8.97132 9.52074 7.32866 7.47462 7.32866H0.0835153L0 7.62349C0 7.62349 2.25491 8.08681 4.9274 9.72947L9.01965 25.6085H13.9471L21.4634 7.32866H16.4108H16.369ZM48.2718 19.1221L50.7355 12.2988L52.1135 19.1221H48.2301H48.2718ZM53.4498 25.5664H57.7926L54.0344 7.28654H50.2344C48.4806 7.28654 48.063 8.63436 48.063 8.63436L41.0478 25.5243H45.9752L46.9774 22.8287H52.9487L53.4915 25.5243L53.4498 25.5664ZM41.3818 11.7091L42.0499 7.79197C42.0499 7.79197 39.9621 6.9917 37.7907 6.9917C35.4522 6.9917 29.8985 8.00257 29.8985 13.0569C29.8985 17.7743 36.4127 17.8164 36.4127 20.3015C36.4127 22.7865 30.5666 22.3232 28.6457 20.7648L27.9359 24.8504C27.9359 24.8504 30.0237 25.8613 33.2391 25.8613C36.4544 25.8613 41.2983 24.1765 41.2983 19.6276C41.2983 15.0787 34.7006 14.4469 34.7006 12.383C34.7006 10.3191 39.2939 10.5719 41.2983 11.7091H41.3818Z" fill="#005C9C"/>
<path fill-rule="evenodd" clip-rule="evenodd" d="M11.3163 17.1846L9.72953 8.97128C9.72953 8.97128 9.52074 7.32861 7.47462 7.32861H0.0835153L0 7.62345C0 7.62345 3.59116 8.3816 7.01528 11.1615C10.2724 13.815 11.3581 17.1846 11.3581 17.1846H11.3163Z" fill="#EE9F3F"/>
<path d="M80.9268 26.9988C86.7728 26.9988 91.5332 22.113 91.5332 16.132C91.5332 10.151 86.7728 5.26514 80.9268 5.26514C75.0807 5.26514 70.3203 10.151 70.3203 16.132C70.3203 22.113 75.0807 26.9988 80.9268 26.9988Z" fill="#FF2F05"/>
<path d="M93.2861 27.1673C99.1322 27.1673 103.893 22.2814 103.893 16.3004C103.893 10.3195 99.1322 5.43359 93.2861 5.43359C87.4401 5.43359 82.6797 10.3195 82.6797 16.3004C82.6797 22.2814 87.4401 27.1673 93.2861 27.1673Z" fill="#FFBC37"/>
<path fill-rule="evenodd" clip-rule="evenodd" d="M87.273 7.32861C89.862 9.30823 91.5323 12.4672 91.5323 16.0474C91.5323 19.6275 89.7367 23.0392 86.939 25.0188C84.35 23.0392 82.6797 19.8802 82.6797 16.3001C82.6797 12.7199 84.4753 9.30823 87.273 7.32861Z" fill="#FF8729"/>
<path d="M151.413 22.7867H148.866V22.6603C148.574 22.7867 148.281 22.7867 147.947 22.7867H140.138V21.481H139.971V22.7867H137.424V21.3546C137.007 21.481 136.547 21.5652 136.088 21.5652H135.879V22.7867H132.873C132.873 22.7867 132.413 22.2812 132.121 21.9864C131.912 22.2812 131.369 22.7867 131.369 22.7867H126.609V17.4796H131.411C131.411 17.4796 131.954 18.0693 132.246 18.3641C132.539 18.0693 133.081 17.4796 133.081 17.4796H136.547C136.547 17.4796 137.09 17.4796 137.466 17.606V17.4796H140.64C140.64 17.4796 141.182 17.4796 141.6 17.606V17.4796H146.277V17.606C146.736 17.4796 147.112 17.4796 147.196 17.4796H149.826V17.606C150.286 17.4796 150.661 17.4796 150.745 17.4796H152.624V0H119.886V13.5625L121.013 11.0353H123.435L123.728 11.7092V11.0353H126.567C126.567 11.0353 127.027 11.962 127.152 12.4253C127.361 12.0041 127.736 11.0353 127.736 11.0353H136.547C136.547 11.0353 137.09 11.0353 137.508 11.1617V11.0353H140.055V11.3302C140.431 11.1196 140.89 10.9511 141.266 10.9511C141.266 10.9511 142.602 10.9511 142.686 11.0353H145.108C145.108 11.0353 145.316 11.625 145.4 11.7092V11.0353H148.031C148.031 11.0353 148.406 11.625 148.49 11.7092V11.0353H151.037V16.3424H148.49C148.49 16.3424 148.114 15.7527 148.031 15.6264V16.3424H144.815C144.815 16.3424 144.523 15.6685 144.44 15.5421H143.604L143.229 16.3424H141.057C140.765 16.3424 140.473 16.216 140.138 16.0476V16.4266H136.088V15.1209H135.921V16.4266H128.029H126.15C126.15 16.4266 126.15 16.3424 126.066 16.3424L122.851 16.4266C122.851 16.4266 122.559 15.7527 122.475 15.6264H121.64C121.556 15.837 121.264 16.4266 121.264 16.4266H119.761V31H152.499V22.6603C152.499 22.6603 151.956 22.7867 151.58 22.7867H151.413Z" fill="#0087B1"/>
<path d="M136.965 15.5421V14.8261C136.965 14.8261 136.881 14.2364 136.297 14.2364H135.336V15.5421H134.376V11.7092H136.839C136.839 11.7092 138.134 11.5829 138.134 12.8886C138.134 13.5625 137.549 13.7731 137.549 13.7731C137.549 13.7731 138.092 13.9837 138.092 14.6576V15.5842H137.048L136.965 15.5421ZM135.294 13.3098H136.338C136.631 13.3098 136.881 13.1834 136.881 12.9307C136.881 12.678 136.672 12.5516 136.338 12.5516H135.294V13.2677V13.3098ZM148.991 15.5421L147.404 12.9307V15.5421H145.358L144.982 14.7418H143.103L142.727 15.5421H141.224C141.224 15.5421 139.888 15.3315 139.888 13.731C139.888 11.5408 141.474 11.7092 141.474 11.625H142.769V12.5095H141.725C141.725 12.5095 141.057 12.5095 140.973 13.394V13.6889C140.973 14.9946 142.184 14.5734 142.184 14.5734L143.479 11.6671H144.899L146.402 15.163V11.6671H147.822L149.408 14.1943V11.6671H150.452V15.5H149.033V15.5842L148.991 15.5421ZM143.562 13.8152H144.523L144.063 12.6359L143.521 13.8152H143.562ZM128.947 15.5421V12.8465L127.653 15.5421H126.818L125.523 12.8465V15.5421H123.477L123.101 14.7418H121.222L120.846 15.5421H119.719L121.389 11.7092H122.809L124.396 15.2473V11.7092H125.982L127.11 14.1101L128.237 11.7092H129.824V15.5421H128.905H128.947ZM121.807 13.8152H122.767L122.224 12.6359L121.765 13.8152H121.807ZM130.617 15.5421V11.7092H133.791V12.6359H131.62V13.2255H133.708V14.1101H131.62V14.784H133.791V15.5842H130.617V15.5421ZM138.426 15.5421V11.7092H139.47V15.5421H138.426ZM140.848 22.0707V21.3546C140.848 21.3546 140.765 20.7649 140.18 20.7649H139.22V22.0707H138.176V18.2378H140.639C140.639 18.2378 141.934 18.1114 141.934 19.4171C141.934 20.091 141.349 20.3016 141.349 20.3016C141.349 20.3016 141.809 20.5122 141.809 21.1861V22.1128H140.89L140.848 22.0707ZM139.178 19.8804H140.222C140.514 19.8804 140.765 19.7541 140.765 19.5014C140.765 19.2486 140.556 19.1223 140.222 19.1223H139.178V19.8383V19.8804ZM134.042 22.0707H133.123L132.079 20.8913L131.035 22.0707H127.277V18.2378H130.952L132.079 19.4592L133.29 18.2378H136.505C136.505 18.2378 137.8 18.1114 137.8 19.4171C137.8 20.5965 137.34 20.9334 136.088 20.9334H135.127V22.1549H134.083V22.0707H134.042ZM132.831 20.1753L134.125 21.5652V18.8696L132.831 20.1753ZM128.237 21.2704H130.325L131.286 20.1753L130.325 19.0802H128.237V19.6698H130.325V20.5543H128.237V21.2704ZM135.086 19.8383H136.129C136.422 19.8383 136.672 19.712 136.672 19.4592C136.672 19.2065 136.464 19.0802 136.129 19.0802H135.086V19.7962V19.8383ZM147.738 22.0707H145.943V21.1861H147.529C147.529 21.1861 148.114 21.2704 148.114 20.8913C148.114 20.5122 147.279 20.5965 147.279 20.5965C147.279 20.5965 145.859 20.7228 145.859 19.4171C145.859 18.1957 147.154 18.2378 147.154 18.2378H149.116V19.1223H147.529C147.529 19.1223 146.986 19.038 146.986 19.4171C146.986 19.712 147.738 19.712 147.738 19.712C147.738 19.712 149.325 19.5856 149.325 20.7228C149.325 21.9443 148.364 22.1128 147.989 22.1128C147.822 22.0285 147.78 22.0285 147.78 22.0285L147.738 22.0707ZM142.31 22.0707V18.2378H145.483V19.1644H143.395V19.7541H145.483V20.6386H143.395V21.3125H145.483V22.1128H142.31V22.0707ZM151.329 22.0707H149.534V21.1861H151.12C151.12 21.1861 151.705 21.2704 151.705 20.8913C151.705 20.5122 150.87 20.5965 150.87 20.5965C150.87 20.5965 149.45 20.7228 149.45 19.4171C149.45 18.1957 150.745 18.2378 150.745 18.2378H152.707V19.1223H151.12C151.12 19.1223 150.578 19.038 150.578 19.4171C150.578 19.712 151.329 19.712 151.329 19.712C151.329 19.712 152.916 19.5856 152.916 20.7228C152.916 21.9443 151.956 22.1128 151.58 22.1128C151.413 22.0285 151.371 22.0285 151.371 22.0285L151.329 22.0707Z" fill="#0087B1"/>
</g>
<defs>
<clipPath id="clip0_206_2627">
<rect width="153" height="31" fill="white"/>
</clipPath>
</defs>
</svg>
